<?xml version="1.0" encoding="utf-8"?>
<svg id="svg2" viewBox="0 0 500 670" xmlns="http://www.w3.org/2000/svg">
  <desc>Source: openclipart.org/detail/209545</desc>
  <defs>
    <linearGradient gradientUnits="userSpaceOnUse" x1="250" y1="194.829" x2="250" y2="293.431" id="gradient-0" gradientTransform="matrix(1.528374, 0.299847, -0.309279, 1.952198, -55.341236, -269.43869)">
      <stop offset="0" style="stop-color: rgb(255, 50, 24);"/>
      <stop offset="1" style="stop-color: rgb(130, 34, 24);"/>
    </linearGradient>
    <linearGradient gradientUnits="userSpaceOnUse" x1="250" y1="194.829" x2="250" y2="293.431" id="gradient-1" gradientTransform="matrix(1.290276, 0.249561, -0.261098, 1.6248, 117.847285, -154.677431)">
      <stop offset="0" style="stop-color: rgb(255, 50, 24);"/>
      <stop offset="1" style="stop-color: rgb(130, 34, 24);"/>
    </linearGradient>
    <linearGradient gradientUnits="userSpaceOnUse" x1="250" y1="194.829" x2="250" y2="293.431" id="gradient-2" gradientTransform="matrix(1.239684, 0.217251, -0.25086, 1.414444, 118.41874, -69.107918)">
      <stop offset="0" style="stop-color: rgb(255, 50, 24);"/>
      <stop offset="1" style="stop-color: rgb(130, 34, 24);"/>
    </linearGradient>
    <linearGradient gradientUnits="userSpaceOnUse" x1="250" y1="163.31" x2="250" y2="286.69" id="gradient-3" gradientTransform="matrix(1.106724, 0.608183, -0.505439, 1.15269, 82.79765, -209.863617)">
      <stop offset="0" style="stop-color: rgb(255, 47, 15);"/>
      <stop offset="1" style="stop-color: rgb(54.108% 0% 0%)"/>
    </linearGradient>
    <linearGradient gradientUnits="userSpaceOnUse" x1="253.213" y1="245.199" x2="253.213" y2="467.559" id="gradient-6">
      <stop offset="0" style="stop-color: rgb(19.608% 90.98% 22.353%)"/>
      <stop offset="1" style="stop-color: rgb(0% 53.448% 0%)"/>
    </linearGradient>
  </defs>
  <ellipse style="stroke: rgb(0, 0, 0);" cx="262.079" cy="301.535" rx="444.404" ry="472.011"/>
  <ellipse style="stroke-miterlimit: 8.5; stroke-linecap: round; stroke-linejoin: round; paint-order: fill markers; stroke: rgb(0, 0, 0); fill: rgb(247, 255, 140); stroke-width: 70px; stroke-dasharray: 25, 75;" cx="240.244" cy="289.07" rx="273.96" ry="268.557"/>
  <path d="M 396.434 254.051 C 398.91 256.559 398.916 262.035 398.514 264.966 C 398.189 267.334 397.848 268.563 395.395 270.684 C 393.496 272.326 390.054 273.861 385.914 275.576 C 385.767 275.553 385.626 275.537 385.491 275.529 C 383.908 275.434 383.395 275.564 380.982 277.169 C 380.569 277.444 380.084 277.794 379.535 278.212 C 379.439 278.253 379.342 278.294 379.245 278.335 C 379.163 278.432 379.081 278.53 378.996 278.628 C 377.396 279.878 375.35 281.602 373.049 283.613 C 369.271 283.017 365.037 282.814 362.637 283.111 C 359.041 283.554 357.573 284.173 354.178 287.34 C 351.372 289.959 345.919 296.248 340.883 302.85 C 340.746 302.924 340.611 303.011 340.521 303.09 C 340.501 303.107 340.483 303.126 340.466 303.145 C 340.422 303.172 340.377 303.204 340.333 303.24 C 340.194 303.353 339.99 303.561 339.842 303.755 C 339.487 303.91 339.156 304.162 338.703 304.526 C 338.097 305.013 337.224 305.92 336.364 306.946 C 335.888 307.116 335.459 307.352 335.013 307.73 C 334.251 308.374 333.195 309.646 332.718 310.7 C 329.901 313.055 326.866 315.804 323.794 319.211 C 311.674 332.658 289.99 356.296 278.326 379.483 C 265.908 404.17 254.411 447.67 252.948 464.075 C 252.8 465.733 252.725 467.279 252.722 468.708 C 252.563 468.731 252.408 468.752 252.257 468.772 C 250.58 468.989 249.406 468.888 247.878 468.772 C 246.24 468.647 244.173 468.554 242.727 467.999 C 241.491 467.525 239.924 466.633 239.548 465.901 C 238.119 464.853 236.855 463.175 235.178 460.509 C 228.67 450.166 222.063 414.126 213.351 395.029 C 205.568 377.969 190.942 356.356 186.564 350.384 C 184.963 348.201 185.604 349.698 183.588 347.408 C 176.847 339.753 142.932 294.366 129.022 280.937 C 120.454 272.665 110.366 271.861 108.187 266.055 C 106.313 261.059 110.458 252.606 113.148 249.189 C 115.194 246.59 117.111 244.993 121.085 245.221 C 128.141 245.624 143.657 253.139 154.817 261.094 C 167.828 270.37 180.414 283.117 193.509 299.787 C 204.939 314.336 218.753 334.297 230.233 354.308 C 229.371 319.367 230.241 278.646 232.559 268.368 C 233.915 262.356 235.622 262.533 238.277 260.571 C 241.188 258.419 245.674 256.301 249.713 256.412 C 254.121 256.533 260.35 255.204 263.747 262.13 C 268.147 271.1 269.567 305.135 269.337 337.608 C 278.747 325.838 289.361 314.578 300.271 303.952 C 313.214 291.346 327.851 277.815 341.855 268.605 C 351.722 262.117 363.515 255.225 372.912 251.845 C 373.741 251.088 374.357 250.521 374.699 250.197 C 375.464 249.472 375.165 249.622 375.624 249.272 C 376.313 248.747 377.363 247.543 378.71 247.421 C 380.508 247.257 384.63 248.349 385.806 249.58 C 385.874 249.651 385.937 249.726 385.995 249.804 C 390.494 250.266 394.361 251.95 396.434 254.051 Z" style="stroke: rgb(0, 0, 0); paint-order: fill; fill: url(&quot;#gradient-6&quot;); stroke-opacity: 0;"/>
  <ellipse style="fill-rule: evenodd; paint-order: fill markers; fill: url(&quot;#gradient-0&quot;); stroke-opacity: 0.17; stroke-width: 3px; stroke: url(&quot;#gradient-3&quot;);" cx="250.224" cy="201.546" rx="62.882" ry="85.144"/>
  <ellipse style="fill-rule: evenodd; paint-order: fill markers; stroke: rgb(199, 37, 12); stroke-opacity: 0.17; stroke-width: 3; fill: url(&quot;#gradient-1&quot;); transform-box: fill-box; transform-origin: 50% 50%;" cx="372.516" cy="232.204" rx="53.086" ry="70.864" transform="matrix(0.965926, 0.258819, -0.258819, 0.965926, -0.363761, 9.400888)"/>
  <ellipse style="fill-rule: evenodd; paint-order: fill markers; stroke: rgb(199, 37, 12); stroke-opacity: 0.17; stroke-width: 3; fill: url(&quot;#gradient-2&quot;);" cx="125" cy="225" rx="51.004" ry="61.69"/>
</svg>